<svg width="60" height="60" viewBox="0 0 60 60" fill="none" xmlns="http://www.w3.org/2000/svg">
<g clip-path="url(#clip0_72_128)">
<path d="M51.9968 51.4482C51.642 51.4019 51.4964 51.547 51.3144 51.7667C50.9769 52.1746 50.5527 52.5107 50.1533 52.8636C49.9105 53.0782 49.6473 53.2703 49.391 53.4699C48.6788 54.0249 47.9877 54.6112 47.2459 55.1231C46.4477 55.6744 45.6117 56.1724 44.7732 56.6593C44.2976 56.9358 43.7867 57.153 43.2839 57.3795C42.586 57.6942 41.8862 58.0071 41.176 58.2918C40.7307 58.4701 40.2644 58.5934 39.8093 58.7467C39.3969 58.8862 38.9931 59.0558 38.5745 59.1709C38.0816 59.3067 37.5769 59.3974 37.0771 59.5088C36.5353 59.6302 35.9959 59.7648 35.451 59.8667C35.2912 59.8968 35.0503 59.898 34.9568 59.8023C34.5834 59.42 34.1245 59.4869 33.6892 59.5207C33.2433 59.5545 32.8062 59.6884 32.3609 59.7529C31.8531 59.8267 31.3429 59.9024 30.8307 59.9243C29.7439 59.97 28.6553 60.005 27.5679 59.9988C26.6471 59.9931 25.7244 59.9525 24.8073 59.8705C24.1886 59.8148 23.575 59.6771 22.9656 59.5451C22.4275 59.4281 21.8943 59.2829 21.3661 59.1246C20.7827 58.9494 20.1994 58.7673 19.6309 58.549C18.6878 58.1867 17.754 57.8 16.822 57.4095C16.2845 57.1842 15.7389 56.9671 15.2324 56.6818C14.5636 56.3045 13.9227 55.8752 13.2842 55.4472C12.7473 55.0874 12.2191 54.7107 11.707 54.3153C11.302 54.0024 10.9168 53.662 10.5409 53.3135C9.6554 52.4925 8.76491 51.6753 7.90725 50.8243C7.41928 50.34 6.99509 49.7906 6.53436 49.2781C6.45076 49.1849 6.32939 49.1267 6.21545 49.0454C6.46563 48.8126 6.14857 48.6349 6.03648 48.5154C5.57762 48.0267 5.30267 47.4222 4.9336 46.8791C4.45863 46.1795 4.09513 45.4255 3.74897 44.6584C3.70686 44.5658 3.56938 44.517 3.45668 44.4337C3.53347 43.8543 3.13033 43.4138 2.92598 42.9057C2.72224 42.3989 2.46154 41.9152 2.24604 41.4127C2.0293 40.9078 1.82681 40.3953 1.63793 39.8791C1.48684 39.4661 1.35555 39.0456 1.2317 38.6232C1.06141 38.0438 0.900404 37.4619 0.748687 36.8774C0.684904 36.6309 0.659514 36.375 0.607497 36.1253C0.510275 35.6566 0.396951 35.1917 0.309018 34.7218C0.269385 34.5109 0.281151 34.2913 0.259477 34.076C0.21613 33.6455 0.145535 33.2169 0.122003 32.7852C0.0860866 32.1331 0.0842288 31.4786 0.0613165 30.826C0.0439774 30.3304 -0.011136 29.8348 1.04976e-05 29.3399C0.0167303 28.5871 0.0631743 27.8344 0.122622 27.0841C0.158539 26.6305 0.228515 26.1781 0.308398 25.7294C0.440918 24.981 0.569104 24.2308 0.744971 23.4918C0.865726 22.9843 1.0707 22.4981 1.22613 21.9982C1.30973 21.7298 1.35679 21.4494 1.43853 21.1804C1.54443 20.8287 1.67695 20.4858 1.7816 20.1335C1.89802 19.7431 1.97914 19.342 2.10671 18.9559C2.21446 18.6299 2.36246 18.3176 2.49869 18.0017C2.6758 17.5912 2.85105 17.1801 3.04116 16.7765C3.36998 16.0775 3.69076 15.3736 4.0493 14.6903C4.3707 14.0777 4.72491 13.4808 5.09027 12.8932C5.29957 12.5566 5.55718 12.2512 5.79621 11.9339C6.20616 11.3896 6.59072 10.8227 7.0372 10.3102C7.61062 9.65129 8.21749 9.01992 8.84108 8.40921C9.47024 7.79287 10.0994 7.16464 10.7973 6.63339C11.8438 5.83621 12.9263 5.0797 14.0391 4.38014C14.8553 3.86704 15.7476 3.47909 16.5985 3.02105C16.9168 2.8496 17.2016 2.61308 17.5249 2.45477C17.754 2.34276 18.0308 2.33337 18.2723 2.24139C19.1374 1.91288 20.0155 1.64069 20.9301 1.48301C21.259 1.42607 21.5717 1.26838 21.8912 1.15638C21.9098 1.15012 21.9259 1.13135 21.9445 1.12822C22.3587 1.06189 22.7761 1.01308 23.1861 0.926732C23.5267 0.855399 23.8542 0.721493 24.1948 0.65016C24.5515 0.575698 24.9175 0.551294 25.2773 0.489347C25.821 0.395488 26.3622 0.288488 26.9047 0.187745C26.935 0.182114 26.966 0.183365 26.9969 0.182114C27.8639 0.14457 28.7315 0.107652 29.5984 0.0694823C30.1297 0.0457046 30.6617 -0.0162427 31.1911 0.00315496C31.8934 0.0288099 32.5944 0.111406 33.2941 0.181488C33.831 0.234675 34.3691 0.284733 34.9005 0.375464C35.4491 0.46995 35.9891 0.615119 36.534 0.732756C36.9607 0.824738 37.3905 0.90358 37.8165 0.99744C38.0642 1.05188 38.3119 1.11445 38.5534 1.19267C39.1659 1.39102 39.7814 1.5825 40.3827 1.81089C41.0447 2.06243 41.6924 2.35215 42.3457 2.62559C42.7377 2.78953 43.1371 2.93783 43.518 3.12555C44.0146 3.37083 44.5045 3.63176 44.9807 3.91459C45.8773 4.44772 46.7709 4.98709 47.6465 5.55338C48.0305 5.8018 48.368 6.12342 48.7271 6.41063C49.033 6.65529 49.3402 6.89807 49.6449 7.14461C49.9526 7.39365 50.2709 7.63143 50.5614 7.90049C51.1354 8.43174 51.7243 8.95235 52.2501 9.52989C52.8006 10.135 53.2805 10.8045 53.797 11.4409C54.1084 11.8251 54.4435 12.1905 54.7444 12.5828C54.9296 12.8244 55.0708 13.0997 55.2311 13.36C55.5705 13.9106 55.9204 14.455 56.2442 15.015C56.4065 15.2954 56.5204 15.6051 56.6579 15.8998C56.8759 16.3672 57.0976 16.8322 57.3149 17.3002C57.4307 17.5492 57.5521 17.797 57.6499 18.0536C57.8543 18.5898 58.0549 19.128 58.2389 19.6717C58.4333 20.2461 58.6172 20.8243 58.7844 21.4069C58.9008 21.8136 58.9838 22.2303 59.0767 22.6433C59.19 23.1477 59.3176 23.6495 59.403 24.1588C59.5133 24.8171 59.722 25.4553 59.7127 26.1393C59.7077 26.4997 59.8483 26.8626 59.922 27.2243C59.93 27.2643 59.935 27.3063 59.9356 27.3469C59.9591 28.8944 59.9907 30.4424 60 31.9898C60.0037 32.6206 59.9889 33.2544 59.9257 33.8814C59.8793 34.342 59.7343 34.7925 59.6464 35.2499C59.6192 35.3913 59.6501 35.5434 59.6254 35.6854C59.5548 36.0934 59.4922 36.5051 59.3851 36.9043C59.2451 37.4249 59.0544 37.9312 58.9064 38.4499C58.834 38.7033 58.8302 38.9774 58.7572 39.2308C58.611 39.7389 58.4482 40.2426 58.2748 40.7419C58.0735 41.3207 57.8704 41.8995 57.6351 42.4646C57.4344 42.9458 57.1954 43.4113 56.9576 43.8756C56.7266 44.3274 56.4833 44.7729 56.2325 45.2134C56.1018 45.443 55.9389 45.6545 55.7996 45.8798C55.6943 46.0494 55.6126 46.234 55.5036 46.4004C55.0299 47.1225 54.5828 47.8659 54.0626 48.5523C53.5251 49.2619 52.922 49.922 52.3299 50.5878C52.1157 50.8287 51.8469 51.0214 51.998 51.4463L51.9968 51.4482ZM39.208 17.7557L39.2098 17.7576L39.3256 17.8865C39.3473 17.9084 39.3684 17.9303 39.39 17.9516C39.4613 18.058 39.5288 18.1668 39.6049 18.2695C39.7288 18.4359 39.8588 18.5986 39.9864 18.7625L39.9752 18.7751C39.8458 18.8695 39.7158 18.9634 39.5863 19.0579C39.0971 19.4327 38.5999 19.7975 38.1206 20.1848C37.357 20.8012 36.5854 21.4106 35.8541 22.0645C35.2188 22.6327 34.667 23.2978 34.0168 23.8453C33.6025 24.1939 33.4917 24.5693 33.5183 25.0724C33.5455 25.5861 34.3475 26.3921 35.0441 26.056C35.3699 25.899 35.5779 25.6474 35.8126 25.3921C36.4511 24.6976 37.1267 24.0374 37.7874 23.3642C37.8233 23.301 37.8586 23.2378 37.8946 23.1746C38.0828 23.0069 38.281 22.8486 38.4581 22.6683C38.7578 22.3636 39.0272 22.0257 39.3399 21.736C40.0118 21.1134 40.6998 20.509 41.3909 19.9076C41.4528 19.8538 41.6125 19.83 41.6726 19.872C41.9593 20.0741 42.2491 20.2812 42.4987 20.5265C43.5496 21.5608 44.5905 22.6045 45.6259 23.6551C46.0154 24.0506 46.4037 24.4529 46.7492 24.8866C47.1852 25.4347 47.5617 26.031 47.9983 26.5792C48.1277 26.7412 48.3711 26.8107 48.5618 26.9233L48.8206 26.9709C48.999 26.974 49.1767 26.9771 49.3551 26.9809C49.4832 26.9264 49.612 26.872 49.7402 26.8169C49.7817 26.7756 49.8232 26.7343 49.8647 26.6937C49.9223 26.6086 49.9799 26.5228 50.0381 26.4377C50.0647 25.9672 49.9954 25.608 49.5706 25.2439C48.5798 24.3935 47.6856 23.4274 46.7523 22.5082C46.6917 22.4475 46.631 22.3868 46.5709 22.3261C46.1579 21.9075 45.7442 21.4882 45.3312 21.0696C45.2698 21.0089 45.2092 20.9488 45.1479 20.8881C45.0339 20.7749 44.92 20.6623 44.8073 20.5484C44.2698 20.0065 43.7273 19.4702 43.204 18.9146C43.1446 18.8514 43.1464 18.6243 43.2065 18.5692C43.6499 18.1606 44.1199 17.7814 44.5732 17.3834C44.9794 17.0268 45.372 16.6545 45.777 16.2965C46.3281 15.8097 46.8855 15.3298 47.4397 14.8461C47.7456 14.5789 48.0503 14.3098 48.3556 14.0414C48.8528 13.6034 49.2832 13.126 49.1736 12.3882C49.1532 12.2518 49.0758 12.0941 48.9742 12.0053C48.6045 11.683 47.997 11.7356 47.5543 12.111C47.4162 12.228 47.2991 12.3695 47.1672 12.4934C46.2836 13.3249 45.4024 14.159 44.5137 14.985C43.871 15.5826 43.2176 16.1695 42.5693 16.7608L41.9866 17.2889C41.8559 17.4147 41.7252 17.5405 41.5766 17.6838C41.4008 17.5455 41.2125 17.4247 41.0571 17.2702C40.5388 16.7564 40.031 16.2315 39.5213 15.709C38.7324 14.8993 37.9447 14.0877 37.1576 13.2761C36.7471 12.8525 36.3867 12.3801 35.869 12.0647C35.2609 11.6949 34.5444 11.8269 34.402 12.6679C34.3363 13.0553 34.5271 13.3174 34.7828 13.5552C35.3507 14.0821 35.9204 14.6064 36.4901 15.1321C36.5588 15.1852 36.6276 15.2384 36.6963 15.2922C36.718 15.3154 36.739 15.3385 36.7607 15.3623C36.8003 15.403 36.8406 15.443 36.8802 15.4837C36.9644 15.5682 37.048 15.6527 37.1323 15.7378C37.1725 15.7766 37.2134 15.816 37.2536 15.8548C37.8673 16.4448 38.481 17.0355 39.0947 17.6256C39.1331 17.6694 39.1721 17.7132 39.2105 17.757L39.208 17.7557ZM56.7248 32.9378C56.6926 32.9985 56.661 33.0592 56.6288 33.1205C56.63 33.3039 56.6319 33.4878 56.6331 33.6712C56.5755 33.76 56.518 33.8489 56.4604 33.9377C56.4498 34.2037 56.4678 34.474 56.2684 34.6955C56.2281 34.7399 56.2275 34.8319 56.2288 34.902C56.2362 35.2806 55.8368 35.5521 55.9575 35.9601C55.9594 35.9664 55.9198 35.9795 55.9148 35.9951C55.8572 36.161 55.8021 36.328 55.7464 36.4945C55.6894 36.629 55.6287 36.7623 55.5767 36.8993C55.5544 36.9575 55.5513 37.0232 55.5389 37.0858C55.5018 37.4156 55.5408 37.7628 55.3011 38.0463C55.2844 38.0657 55.3841 38.2415 55.4144 38.2371C55.6423 38.2046 55.9074 38.214 55.9773 37.903C55.9885 37.8548 55.9916 37.7866 56.0238 37.7635C56.4907 37.4268 56.9973 37.1283 57.1341 36.4957C57.1397 36.4701 57.1737 36.4488 57.1979 36.4294C57.4091 36.2623 57.4958 36.0465 57.4642 35.7761C57.4549 35.6954 57.4437 35.589 57.4846 35.5321C57.7503 35.1585 57.8834 34.7449 57.9032 34.2894C57.9051 34.2506 57.9175 34.1987 57.9441 34.1774C58.1738 33.9909 58.0704 33.7444 58.0704 33.5154C58.0704 33.1744 58.0624 32.8321 58.0828 32.4923C58.1094 32.0562 58.2067 31.6188 58.1837 31.1864C58.1701 30.9311 58.133 30.7071 58.2915 30.4906C58.3485 30.413 58.4228 30.326 58.4296 30.2391C58.4395 30.107 58.3943 29.8549 58.3769 29.8549C58.1193 29.8599 57.8549 29.8699 57.6085 29.9381C57.406 29.9944 57.3174 30.1771 57.3422 30.4049C57.3502 30.4806 57.3354 30.6132 57.2951 30.6301C57.0047 30.7503 57.1056 30.9943 57.0914 31.2046C57.0815 31.346 57.0573 31.4861 57.04 31.6269C57.0301 31.6739 57.0202 31.7208 57.0103 31.7677C56.9929 31.8822 56.975 31.9974 56.9576 32.1119C56.9081 32.1832 56.8585 32.2545 56.809 32.3259C56.809 32.5105 56.8096 32.695 56.8102 32.8796L56.726 32.9385L56.7248 32.9378ZM22.0968 23.1746C22.1364 23.2152 22.1754 23.2565 22.2151 23.2972C22.4758 23.5575 22.7359 23.8172 22.9966 24.0775C23.2858 24.3666 23.5743 24.6563 23.8635 24.9454C24.2221 25.3139 24.5757 25.6875 24.941 26.0492C25.3838 26.4878 26.33 26.4271 26.6886 25.929C27.1635 25.2676 27.049 24.4936 26.4675 23.9642C25.5244 23.1057 24.5682 22.2616 23.627 21.4012C22.8622 20.7023 22.1172 19.9808 21.3518 19.2825C20.8843 18.8564 20.8744 18.867 21.3772 18.4841C21.4348 18.4403 21.5011 18.4078 21.5525 18.3583C22.5216 17.4266 23.487 16.4899 24.458 15.5601C25.1342 14.9124 25.816 14.2698 26.4991 13.6291C26.8483 13.3012 27.1208 12.9307 27.2385 12.4521C27.3617 11.9508 27.1697 11.3946 26.6217 11.2619C26.1139 11.1393 25.6643 11.2938 25.2971 11.6868C24.6357 12.3939 23.9725 13.0991 23.2982 13.793C22.9086 14.1935 22.4925 14.5676 22.0931 14.9587C21.6132 15.4287 21.1388 15.9042 20.6626 16.3779C20.5437 16.5268 20.4248 16.6757 20.3053 16.8247C20.2626 16.8678 20.2198 16.9116 20.1771 16.9548C20.0941 17.0149 20.0112 17.0743 19.9276 17.1344C19.6534 17.388 19.3581 17.4055 19.0414 17.187C18.9659 17.135 18.8847 17.0887 18.8185 17.0261C18.1565 16.4023 17.4964 15.7772 16.8375 15.1502C15.8324 14.1935 14.8187 13.2455 13.8285 12.2737C13.3003 11.755 12.7733 11.3007 11.9609 11.4327C11.6909 11.4765 11.4946 11.5685 11.367 11.8251C11.1082 12.3432 11.2605 12.9407 11.6011 13.3081C12.1281 13.8756 12.6761 14.4244 13.2334 14.9612C14.166 15.8585 15.1135 16.7402 16.0541 17.6293C16.5341 18.083 17.0127 18.5385 17.4704 18.9734C16.3885 20.0346 15.3135 21.0903 14.2379 22.1459C14.1778 22.2066 14.1183 22.2673 14.0583 22.3286C13.9939 22.3918 13.9289 22.4543 13.8645 22.5175C13.8038 22.5789 13.7431 22.6396 13.6818 22.7009C13.6589 22.7209 13.636 22.7409 13.613 22.761L12.9727 23.3579C12.9269 23.4073 12.8811 23.458 12.834 23.5068C11.9993 24.3672 11.141 25.2063 10.3391 26.0967C9.90929 26.5742 10.1607 27.2199 10.6945 27.4333C11.3138 27.6811 11.816 27.3751 12.234 26.9671C13.3833 25.8446 14.5066 24.6957 15.6405 23.5575C15.7426 23.4536 15.8442 23.3498 15.9464 23.2453C16.334 22.8492 16.7217 22.4531 17.11 22.0576C17.64 21.5189 18.1676 20.9783 18.7058 20.4483C18.7708 20.3838 18.9337 20.3231 18.9857 20.3588C19.2693 20.5534 19.5498 20.7586 19.7988 20.9964C20.3809 21.5527 20.9444 22.129 21.5159 22.6971C21.7073 22.8554 21.8993 23.0138 22.0906 23.1721L22.0949 23.1764L22.0968 23.1746ZM48.5544 8.75336C48.4398 8.59943 48.3463 8.42298 48.2076 8.29658C47.7778 7.90487 47.3363 7.52568 46.8867 7.15775C46.8056 7.0908 46.6656 7.09706 46.5523 7.06952C46.5164 7.24535 46.4656 7.42056 46.4514 7.59827C46.4464 7.66334 46.5238 7.79162 46.5697 7.79474C46.8279 7.81164 46.8192 7.99248 46.8291 8.17143C46.8527 8.5913 47.1301 8.88101 47.4471 9.03369C47.6422 9.12755 47.7134 9.23142 47.7456 9.3866C47.7877 9.58996 47.8379 9.71261 48.0813 9.64065C48.1419 9.6225 48.259 9.68445 48.3036 9.74452C48.4844 9.98793 48.633 10.257 48.8225 10.4923C48.9005 10.5893 49.0863 10.7075 49.1643 10.6744C49.4863 10.5379 49.6337 10.7132 49.7675 10.9472C49.8591 11.1074 49.8994 11.0948 50.0133 10.9428C50.1322 10.7839 50.3285 10.6856 50.4858 10.5542C50.5589 10.4929 50.6189 10.4159 50.6691 10.3634C50.227 10.0899 49.817 9.8365 49.4071 9.58433C49.3904 9.5737 49.3674 9.57307 49.3476 9.56806C49.3303 9.54741 49.3129 9.52677 49.2956 9.50612C49.282 9.4667 49.269 9.42727 49.2554 9.38785C49.3222 9.15571 49.1408 9.08375 48.999 8.99552C48.8559 8.90667 48.703 8.83408 48.5544 8.75461V8.75336ZM31.4172 2.44162C31.6209 2.54424 31.8178 2.66751 32.0308 2.74385C32.3064 2.84272 32.5956 2.90404 32.956 3.00228C33.13 2.88151 33.3864 2.9347 33.6688 3.05171C33.8001 3.10615 34.0378 3.088 34.1332 2.99978C34.3394 2.80955 34.5543 2.83333 34.7221 2.95034C34.9345 3.09864 35.1438 3.12555 35.3829 3.13368C35.4696 3.13681 35.5872 3.22754 35.6312 3.31014C35.7544 3.54103 35.856 3.75816 36.186 3.69183C36.2548 3.67807 36.3675 3.77005 36.4263 3.84138C36.5972 4.04913 36.7997 4.13798 37.0697 4.12672C37.2233 4.12046 37.3787 4.1799 37.5335 4.20869C37.6636 4.23246 37.8549 4.31944 37.9125 4.26438C38.0246 4.15738 38.0692 3.97341 38.1212 3.81448C38.128 3.79258 38.0203 3.69934 37.9608 3.69371C37.3756 3.6399 36.879 3.3871 36.5037 2.94847C36.3415 2.75887 36.186 2.61495 35.9557 2.54049C35.7389 2.46978 35.529 2.37342 35.3092 2.3146C35.1444 2.27017 34.9599 2.2952 34.8001 2.24077C34.358 2.09122 33.927 1.90975 33.4873 1.7527C32.6965 1.46924 31.8977 1.67823 31.1014 1.72579C31.0016 1.76396 30.902 1.80213 30.7453 1.86157C30.9973 2.07933 31.2066 2.26079 31.4165 2.44162H31.4172ZM20.4137 4.54971C20.4905 4.53281 20.5772 4.53407 20.6416 4.49652C20.9227 4.32945 21.1729 4.06289 21.55 4.24811C21.5754 4.26062 21.6305 4.23372 21.6602 4.20994C21.9903 3.94776 22.3835 3.89269 22.7823 3.81385C23.5322 3.66618 24.2741 3.58045 25.0197 3.80884C25.255 3.8808 25.4761 3.89019 25.6817 3.73501C26.0247 3.47596 26.4018 3.33454 26.8372 3.3652C26.9233 3.37146 27.0137 3.3383 27.0991 3.31264C27.2967 3.25257 27.4961 3.19626 27.6868 3.11804C27.7964 3.07299 27.8893 2.98851 27.9896 2.92156C27.9754 2.88965 27.9617 2.85774 27.9475 2.82645C27.6397 2.78014 27.3313 2.73885 27.0248 2.68691C26.7592 2.64186 26.4303 2.66564 26.2446 2.51484C25.8817 2.21949 25.4965 2.25891 25.1045 2.28644C24.9757 2.2952 24.8556 2.42911 24.78 2.47604C24.5521 2.5699 24.375 2.64937 24.193 2.71382C24.1335 2.73509 24.0604 2.72195 23.9948 2.71632C23.8846 2.70756 23.7508 2.64499 23.6678 2.68754C23.3068 2.87275 22.9359 2.97537 22.529 2.94784C22.4888 2.94534 22.4485 3.01667 22.4027 3.02543C21.9686 3.10803 21.5562 3.2338 21.2212 3.54979C21.1884 3.58108 21.0986 3.54166 21.0404 3.55668C20.7896 3.61987 20.5406 3.69058 20.2911 3.75879C20.1109 3.80509 19.8749 3.84013 20.0093 4.10419C20.0972 4.27689 20.2762 4.40329 20.4143 4.55033L20.4137 4.54971ZM42.9309 6.1691C42.9941 6.09714 43.0579 6.02581 43.1458 5.92632H43.8028C43.8666 5.80993 43.9124 5.72483 43.9589 5.64036C44.0344 5.69354 44.1112 5.74673 44.1862 5.80117C44.4091 5.96198 44.6233 6.13719 44.858 6.27735C44.9559 6.33617 45.0971 6.32115 45.2191 6.3393C45.2098 6.22729 45.2414 6.084 45.1844 6.00954C44.9788 5.7411 44.7522 5.48705 44.5175 5.24427C44.2648 4.98271 43.996 4.75933 43.5824 4.81189C43.4146 4.83317 43.2176 4.77747 43.0616 4.69988C42.713 4.52718 42.3835 4.31506 42.0417 4.12734C41.8479 4.02097 41.6107 3.97091 41.4522 3.82762C40.94 3.36583 40.3288 3.29387 39.6916 3.3189C39.5746 3.3239 39.3857 3.43591 39.3665 3.52789C39.338 3.66368 39.3962 3.85202 39.4817 3.97091C39.6055 4.14486 39.7752 4.29253 39.9468 4.42206C40.0687 4.51404 40.2205 4.58976 40.3685 4.61416C40.5326 4.64107 40.6416 4.66046 40.6354 4.86445C40.6298 5.05342 40.7357 5.13915 40.9289 5.12288C41.0298 5.11412 41.1599 5.09472 41.2305 5.1454C41.4571 5.30872 41.6627 5.50207 41.8763 5.68416C42.1674 5.98138 42.49 6.20789 42.9316 6.1691H42.9309ZM3.63998 25.2451C3.64741 25.0693 3.58982 24.8446 3.67589 24.7295C3.82699 24.5274 3.77312 24.3578 3.72977 24.1638C3.71676 24.1056 3.69199 24.018 3.71986 23.9874C3.9335 23.7515 3.8883 23.4349 3.98676 23.1733C4.19545 22.6189 4.5026 22.1027 4.75773 21.5652C4.83204 21.4088 4.86796 21.2335 4.93731 21.0183C4.69085 20.9926 4.40413 20.9 4.35893 20.9689C4.16882 21.2586 3.86724 21.3668 3.61335 21.5502C3.57248 21.5796 3.54771 21.6365 3.5248 21.6853C3.47897 21.7829 3.46101 21.9025 3.39413 21.98C3.12662 22.291 3.1582 22.7829 2.77178 23.0206C2.7433 23.0382 2.73029 23.0913 2.72286 23.1308C2.64793 23.5168 2.36246 23.8529 2.45782 24.2809C2.46649 24.319 2.40581 24.3685 2.39714 24.416C2.3154 24.8534 2.20703 25.2883 2.16925 25.7294C2.13953 26.0767 2.20083 26.4315 2.2157 26.7838C2.21755 26.8307 2.19155 26.8839 2.16678 26.9271C2.01382 27.1911 2.19155 27.539 2.40395 27.6323C2.52161 27.6836 2.78789 27.6548 2.82504 27.5797C2.95261 27.3244 3.00896 27.0322 3.09194 26.7537C3.13219 26.7024 3.19102 26.6567 3.20898 26.5986C3.27152 26.3952 3.32044 26.1875 3.37432 25.9816C3.38237 25.7795 3.39042 25.578 3.39847 25.3759C3.47897 25.3327 3.56009 25.2895 3.6406 25.2464L3.63998 25.2451ZM58.0048 25.5523C57.9274 25.0855 57.8828 24.6194 57.8599 24.1438C57.8413 23.7577 57.7298 23.3817 57.8227 22.9837C57.8568 22.8385 57.7849 22.6677 57.7614 22.5088C57.5125 22.2328 57.3416 21.8561 56.9 21.8299C56.6635 21.8249 56.4275 21.8111 56.191 21.8174C55.9643 21.823 55.6343 22.1171 55.6095 22.3167C55.5637 22.6809 55.6559 22.8223 56.0219 22.9512C56.1074 22.9812 56.1928 23.0394 56.2777 23.0394C56.5316 23.0394 56.5985 23.209 56.5316 23.3873C56.2944 24.0212 56.5737 24.6256 56.5978 25.2432C56.6046 25.4178 56.6969 25.5717 56.5656 25.7795C56.4814 25.9134 56.5947 26.2 56.666 26.4008C56.7242 26.5666 56.7811 26.6699 56.5644 26.7581C56.313 26.8601 56.5285 27.0754 56.5006 27.2355C56.4981 27.2506 56.6585 27.3088 56.7471 27.3225C56.8561 27.3394 57.0486 27.295 57.0685 27.3388C57.2437 27.7305 57.5317 27.6072 57.8221 27.5378V26.8733C57.8611 26.7869 57.9001 26.7006 57.9398 26.6142C57.9348 26.4352 57.9305 26.2569 57.9255 26.0779C57.9521 25.9027 57.9781 25.7282 58.0048 25.553V25.5523ZM5.86124 17.4817C5.94793 17.4254 6.03463 17.3684 6.12132 17.3121C6.41856 17.1206 6.42909 16.672 6.79755 16.5437C6.70094 16.2071 7.04153 16.055 7.11213 15.7872C7.14742 15.6527 7.17901 15.4962 7.2657 15.3992C7.6001 15.0276 7.65149 14.5082 7.97413 14.1196C8.25155 13.7855 8.24164 13.2574 8.63734 12.9727C8.6745 12.9458 8.68936 12.8869 8.71537 12.8438C8.94511 12.4652 9.18972 12.0941 9.39593 11.7031C9.45414 11.5923 9.40212 11.4215 9.40088 11.2788C9.24483 11.2857 9.05348 11.1074 8.94635 11.3889C8.91787 11.464 8.7903 11.5391 8.70298 11.5454C8.34382 11.571 8.23545 11.8126 8.18777 12.1129C8.14814 12.1167 8.11532 12.1129 8.08745 12.1229C7.80012 12.2293 7.36912 12.1517 7.40317 12.6773C7.40565 12.7167 7.26508 12.7593 7.1982 12.8106C7.10222 12.8851 6.93378 12.9702 6.93564 13.0477C6.94183 13.3106 6.77959 13.4288 6.63716 13.6072C6.40061 13.9031 6.19687 14.2523 6.07921 14.6127C5.92192 15.0926 5.85257 15.5976 5.32992 15.8466C5.28162 15.8698 5.24694 15.9956 5.25932 16.0638C5.31196 16.3535 5.13795 16.4586 4.92183 16.565C4.82832 16.6113 4.69023 16.7658 4.71005 16.814C4.8308 17.1087 4.68651 17.359 4.62459 17.6237C4.63512 17.7157 4.6283 17.8784 4.65927 17.8859C4.77073 17.914 4.89582 17.8896 5.01534 17.8853C5.02834 17.8746 5.04135 17.8634 5.05373 17.8521C5.18563 17.8014 5.31753 17.7507 5.45005 17.6994C5.46368 17.69 5.47668 17.6794 5.48907 17.6688C5.59991 17.6168 5.71076 17.5649 5.8216 17.5123C5.83461 17.5023 5.84761 17.4917 5.86062 17.4817H5.86124ZM29.6548 37.8292C29.6548 37.6946 29.6542 37.5595 29.6535 37.4249C29.765 36.761 29.7087 36.691 29.0659 36.6928C28.9525 36.6928 28.8386 36.6866 28.7259 36.6928C28.3661 36.7141 28.1655 36.9262 28.145 37.286C28.1314 37.5326 28.1023 37.7785 28.0844 38.0244C28.0181 38.9286 27.9481 39.8321 27.8911 40.7369C27.8719 41.0442 27.8881 41.3533 27.8881 41.7275C27.2694 41.6686 26.7102 41.638 26.1585 41.556C25.5789 41.4703 25.006 41.3364 24.4308 41.2206C24.2797 41.19 24.1583 41.1343 24.1911 40.9334C24.2568 40.5304 24.31 40.1256 24.3738 39.722C24.406 39.5218 24.4568 39.3247 24.4884 39.1244C24.5199 38.9267 24.4153 38.8754 24.2338 38.8798C23.9446 38.8866 23.6505 38.8998 23.3675 38.8516C23.2158 38.826 23.1718 38.8391 23.1316 38.9774C23.0139 39.3835 22.8721 39.7827 22.7662 40.1913C22.6603 40.6018 22.4714 40.7857 22.1079 40.6825C21.2051 40.4266 20.309 40.145 19.4173 39.8503C19.3368 39.824 19.2402 39.6012 19.2718 39.5149C19.587 38.6551 19.9238 37.8029 20.2626 36.9519C20.4403 36.5064 20.3623 36.176 19.9833 36.0446C19.7486 35.9632 19.4706 35.8656 19.2495 36.0896C19.1064 36.2342 18.9659 36.3962 18.8736 36.5758C18.5881 37.1321 18.3237 37.699 18.0568 38.264C17.9119 38.5707 17.7781 38.8823 17.6425 39.1832C15.5847 38.1883 13.6217 37.1446 11.9336 35.6766C12.1609 35.3206 12.3974 35.0034 12.5764 34.6555C12.8161 34.1893 13.0892 33.7275 13.0557 33.1643C13.0402 32.9028 13.0539 32.6243 12.7616 32.5148C12.4581 32.4016 11.9627 32.558 11.8178 32.797C11.5912 33.17 11.3788 33.5523 11.1633 33.9315C11.0227 34.1793 10.8865 34.4296 10.7335 34.7061C10.4109 34.4252 10.0975 34.178 9.81392 33.9002C9.23059 33.3295 8.66397 32.7414 8.08745 32.1632C8.00818 32.0837 7.91654 32.0136 7.82241 31.9523C7.48801 31.7333 6.96784 31.7602 6.71828 32.003C6.48482 32.2308 6.39565 32.8258 6.58452 33.1174C6.74367 33.3621 6.92759 33.598 7.13504 33.802C7.93202 34.5835 8.73828 35.355 9.5526 36.1178C9.72166 36.2761 9.73218 36.4144 9.63868 36.6059C9.21511 37.4706 8.76801 38.326 8.38593 39.2095C8.11098 39.8465 8.39584 40.2883 9.07082 40.2539C9.15318 40.2495 9.2374 40.242 9.3179 40.2551C9.59595 40.3014 9.76872 40.1569 9.887 39.9322C10.2338 39.2727 10.5849 38.6145 10.9119 37.9443C11.1236 37.51 11.2438 37.46 11.6296 37.7215C12.3566 38.214 13.0669 38.7365 13.8199 39.1845C14.667 39.6882 15.5519 40.1275 16.4251 40.5861C16.9942 40.8852 16.9966 40.8783 16.7756 41.4822C16.765 41.5103 16.778 41.5466 16.7669 41.5742C16.508 42.2262 16.2281 42.8707 15.9953 43.5321C15.8591 43.9181 15.7724 44.328 15.7135 44.7347C15.6733 45.0107 15.8504 45.224 16.0894 45.3504C16.591 45.6157 17.053 45.4093 17.2858 44.8111C17.6964 43.7548 18.097 42.6948 18.5101 41.6136C18.5931 41.6248 18.7076 41.6261 18.8123 41.658C19.4099 41.842 20.0019 42.0441 20.6019 42.2174C21.0082 42.335 21.4268 42.407 21.8336 42.5215C21.9098 42.5428 22.0194 42.6773 22.0089 42.7424C21.955 43.074 21.8516 43.3975 21.7946 43.7292C21.6751 44.43 21.5673 45.1327 21.467 45.8366C21.4107 46.2327 21.6751 46.4624 21.9556 46.6526C22.0572 46.7214 22.2151 46.722 22.3476 46.7239C22.8863 46.7302 22.9625 46.2696 23.0573 45.9105C23.3099 44.9518 23.5093 43.9788 23.7372 42.9789C23.9131 43.0008 24.0945 43.0177 24.2735 43.0477C24.7924 43.1341 25.3089 43.2361 25.829 43.3137C26.3319 43.3881 26.8366 43.4532 27.3425 43.4951C27.5809 43.5145 27.615 43.6403 27.5859 43.8243C27.4992 44.3787 27.3933 44.9306 27.3171 45.4862C27.2638 45.8723 27.2354 46.2634 27.2174 46.6532C27.2075 46.8685 27.571 47.2902 27.7921 47.3647C28.2534 47.5198 28.5903 47.3365 28.703 46.8647C28.7618 46.6182 28.82 46.3716 28.8634 46.122C28.9395 45.6796 29.0033 45.2347 29.0739 44.791C29.1309 44.4306 29.1903 44.0708 29.2554 43.6703C29.7526 43.7023 30.261 43.7636 30.7701 43.7617C31.8166 43.7573 32.8631 43.7285 33.909 43.6897C34.3338 43.6741 34.7562 43.6021 35.1804 43.5634C35.5643 43.5283 35.9495 43.5033 36.3384 43.4739C36.36 43.5602 36.3724 43.5984 36.378 43.6372C36.3898 43.7192 36.4046 43.8018 36.4071 43.885C36.4313 44.7184 36.5037 45.5413 36.8053 46.3303C36.905 46.5919 37.0394 46.789 37.3094 46.8929C37.7589 47.0662 38.5807 46.814 38.4816 46.1144C38.3869 45.4468 38.3163 44.776 38.2444 44.1052C38.2054 43.7429 38.1862 43.3781 38.1633 43.0753C38.6593 42.9395 39.1009 42.8306 39.5356 42.6967C40.1245 42.5159 40.7072 42.3125 41.2949 42.126C41.5574 42.0428 41.8256 41.9765 42.0671 41.9095C42.2665 42.2887 42.451 42.6066 42.6046 42.9382C42.887 43.5508 43.1371 44.1791 43.4276 44.7873C43.6121 45.174 44.1149 45.3373 44.4716 45.1602C44.8166 44.9894 44.9875 44.5633 44.881 44.1722C44.6413 43.2899 44.354 42.4283 43.9428 41.6104C43.8449 41.4158 43.7025 41.1549 43.7626 40.9941C43.8227 40.8333 44.1118 40.7607 44.3001 40.6487C44.3701 40.6068 44.4357 40.558 44.5082 40.5211C44.9268 40.3058 45.3603 40.1162 45.7634 39.874C46.2043 39.6094 46.6099 39.2859 47.0477 39.0149C47.1282 38.9649 47.3487 39.003 47.4007 39.0756C47.5815 39.3284 47.7178 39.6144 47.8689 39.8891C48.2683 40.6162 48.3581 41.0041 49.1526 40.9021C49.5619 40.8496 49.7495 40.4422 49.7303 40.1362C49.6913 39.5174 49.399 38.9993 49.0894 38.4868C48.9197 38.2065 48.7569 37.9218 48.6169 37.6827C48.973 37.3843 49.295 37.1352 49.5928 36.8593C50.0189 36.4651 50.4196 36.0433 50.845 35.6485C51.6333 34.917 52.4049 34.1711 53.0539 33.3064C53.3858 32.864 53.3269 32.5818 52.8953 32.2458C52.486 31.9273 52.1064 31.5706 51.7002 31.2484C51.3441 30.9655 50.9701 30.7065 50.6035 30.4374C50.5372 30.2053 50.375 30.2466 50.2096 30.296C50.0579 30.2929 49.9068 30.2897 49.7551 30.2872C49.6839 30.3135 49.6133 30.3392 49.5421 30.3655C48.9203 30.622 48.7321 31.3804 49.1185 31.8428C49.4622 32.2539 49.8517 32.6275 50.2393 32.9979C50.396 33.1474 50.5032 33.2595 50.3211 33.4547C50.2307 33.5517 50.1607 33.6681 50.0684 33.7625C49.6511 34.1887 49.2374 34.6192 48.807 35.0315C48.3853 35.4351 47.9456 35.8199 47.4824 36.2404C47.3072 35.977 47.1672 35.743 47.0044 35.5265C46.4576 34.8 45.912 34.0729 45.346 33.3621C45.1986 33.1775 45.0005 32.9804 44.7874 32.9166C44.5131 32.834 44.1769 32.7514 43.9323 33.0354C43.7347 33.2645 43.7322 33.5485 43.8598 33.7894C44.1286 34.2969 44.4171 34.7975 44.7385 35.2724C45.1856 35.9332 45.668 36.5702 46.1411 37.2122C46.2458 37.3542 46.2278 37.4406 46.0842 37.5357C45.7033 37.7872 45.3411 38.0694 44.9497 38.3022C44.3013 38.6877 43.6394 39.0493 42.9737 39.4029C42.9124 39.4354 42.739 39.3647 42.6919 39.2921C42.2058 38.5475 41.7358 37.7916 41.2589 37.0407C41.0205 36.6659 40.7654 36.3399 40.2353 36.435C39.9108 36.4932 39.7319 36.6547 39.7133 36.9913C39.6786 37.6139 40.0898 38.0463 40.3505 38.5406C40.5994 39.0137 40.8818 39.4686 41.14 39.9366C41.2156 40.073 41.2812 40.2313 41.0558 40.3121C40.0811 40.6625 39.112 41.031 38.1292 41.3583C37.6134 41.5304 37.6357 41.4859 37.4666 40.9303C37.3298 40.4804 37.11 40.053 36.8982 39.63C36.7235 39.2796 36.4882 38.9599 36.3142 38.6094C36.0907 38.157 35.5358 37.9042 35.0844 38.0957C35.0076 38.1283 34.9413 38.2052 34.8893 38.2759C34.6286 38.6301 34.7457 39.0324 34.872 39.3622C35.072 39.8859 35.3903 40.3634 35.6485 40.8652C35.7879 41.1361 35.9067 41.4171 36.0566 41.7406C34.9203 41.8476 33.8694 41.9859 32.8148 42.0353C31.7503 42.0848 30.6815 42.046 29.6189 42.046C29.6189 41.1455 29.6139 40.3258 29.6207 39.5055C29.6251 38.9467 29.6449 38.3879 29.6579 37.8292H29.6548ZM35.0014 56.5679C34.7636 56.4684 34.5469 56.367 34.3227 56.2882C34.2304 56.2557 34.0725 56.2231 34.0298 56.2701C33.8248 56.4941 33.579 56.3821 33.356 56.3764C32.9374 56.3652 32.5071 56.3714 32.1039 56.2738C31.5627 56.143 31.045 56.0122 30.4691 56.0604C29.5569 56.1368 28.6367 56.1111 27.7202 56.133C27.4874 56.1386 27.27 56.1799 27.2614 56.5053C26.6737 56.4246 26.0947 56.3451 25.4903 56.2625V56.6242C25.8216 56.6311 26.0315 56.8007 26.2062 57.0741C26.3368 57.2787 26.5344 57.4164 26.8267 57.3926C27.1084 57.3695 27.3976 57.412 27.6806 57.4477C28.0051 57.4883 28.3104 57.5766 28.529 57.86C28.6962 58.0772 28.8776 58.0665 29.0696 57.8625C29.2102 57.713 29.3724 57.6692 29.5384 57.8613C29.6151 57.9501 29.7322 58.0052 29.8319 58.0734C30.2716 58.3756 30.4387 58.3043 30.5323 57.7549C30.8128 57.7299 31.0116 58.2179 31.3416 57.8838C31.4011 57.4377 31.4816 57.402 31.8989 57.6279C31.99 57.6773 32.1231 57.7099 32.2166 57.6811C32.6352 57.554 33.0464 57.4014 33.4954 57.2462C33.4396 57.1286 33.3845 57.0122 33.3474 56.9352C33.8793 56.7087 34.4249 56.6129 35.0002 56.8545V56.5666L35.0014 56.5679ZM5.60425 41.1943C5.66431 40.7213 5.60239 40.6343 5.39927 40.2845C5.24508 40.018 5.19492 39.6895 5.10141 39.3879C5.09832 39.3772 5.13361 39.3578 5.13733 39.3397C5.16334 39.1939 5.18563 39.0481 5.21907 38.8366C4.93422 38.9273 4.71872 39.0205 4.49455 39.0606C4.19111 39.1144 4.17315 39.2827 4.24684 39.5274C4.30134 39.7082 4.29948 39.9222 4.39856 40.0699C4.54656 40.2914 4.55523 40.5042 4.51808 40.7457C4.51127 40.7895 4.58991 40.8408 4.6122 40.8959C4.6667 41.0298 4.75463 41.1693 4.75092 41.3045C4.74349 41.5735 4.82956 41.7587 5.05311 41.9033C5.11875 41.9458 5.19244 42.0866 5.16891 42.1423C5.02277 42.489 5.24198 42.6254 5.37512 42.6936C5.45439 42.9927 5.45315 43.2605 5.58443 43.4025C5.70395 43.5314 5.7764 43.6209 5.74667 43.7855C5.70209 44.0339 5.81046 44.1784 6.04825 44.2291C6.04887 44.5589 6.08974 44.8542 6.42414 45.01C6.46501 45.0294 6.49164 45.1296 6.4873 45.189C6.47058 45.4199 6.55356 45.5657 6.78702 45.5951C6.7994 45.7296 6.78888 45.8598 6.82727 45.973C6.91644 46.2346 7.02233 46.4911 7.13628 46.7427C7.18148 46.8422 7.2496 46.9767 7.33506 47.003C7.56418 47.0724 7.56294 47.2602 7.59762 47.4272C7.65521 47.7038 7.78401 47.8953 8.05339 48.0192C8.19644 48.0849 8.29366 48.2595 8.40203 48.3927C8.55313 48.5792 8.69493 48.7732 8.87947 49.0135C8.98784 48.7206 9.07763 48.5066 9.14265 48.2845C9.16247 48.2169 9.14266 48.1005 9.09559 48.0561C8.85408 47.8265 8.6039 47.6124 8.58409 47.2389C8.58161 47.1888 8.50606 47.1457 8.47448 47.0937C8.34939 46.8866 8.21006 46.6857 8.10974 46.4661C7.95369 46.1251 7.88248 45.7284 7.66945 45.4337C7.462 45.1477 7.56852 44.6734 7.13132 44.537C7.11336 44.5314 7.12947 44.4375 7.11522 44.3893C7.07869 44.2654 7.05268 44.1334 6.98889 44.0251C6.87681 43.8343 6.74057 43.676 6.78578 43.4119C6.80683 43.2912 6.64707 43.1397 6.57214 43.0002C6.52384 42.9101 6.47677 42.8194 6.43466 42.7261C6.37088 42.5847 6.31329 42.4408 6.25136 42.2987C6.20802 42.1999 6.14671 42.106 6.11761 42.0034C6.0272 41.6849 5.94917 41.3627 5.60301 41.1943H5.60425ZM24.1533 56.1868C24.1707 55.9578 23.8697 55.5267 23.4387 55.2733C23.2913 55.1869 23.0517 55.2595 22.799 55.2595C22.7792 55.2282 22.7371 55.1337 22.6708 55.0618C22.5749 54.9579 22.4752 54.8215 22.3532 54.7864C22.1104 54.717 21.8528 54.7877 21.6435 54.5211C21.5308 54.3772 21.1853 54.4442 21.0119 54.3196C20.7413 54.1257 20.5097 53.9229 20.1468 54.055C20.0941 54.0737 20.0099 53.978 19.9344 53.9611C19.7573 53.9211 19.5758 53.8998 19.3969 53.866C19.3325 53.8541 19.2402 53.8485 19.2117 53.8053C19.0296 53.5294 18.759 53.5782 18.4965 53.5832C18.4222 53.5844 18.2989 53.6013 18.281 53.5669C18.115 53.2484 17.8673 53.2891 17.5955 53.3773C17.5416 53.3948 17.4697 53.3829 17.414 53.3617C16.9471 53.1846 16.4858 52.9893 16.0126 52.8317C15.9061 52.796 15.6671 52.8579 15.6491 52.9218C15.6083 53.0632 15.6169 53.2759 15.7012 53.3836C15.812 53.525 16.0139 53.5938 16.1774 53.6933C16.2715 53.7509 16.4127 53.7853 16.4523 53.8685C16.5885 54.1563 16.8239 54.1645 17.0759 54.1382C17.3001 54.115 17.4815 54.1495 17.6623 54.319C17.7738 54.4235 17.9775 54.4285 18.1887 54.493C18.3026 54.7577 18.4636 54.7908 18.9467 54.5731C19.0631 54.8847 19.2625 55.0311 19.6161 54.9541C19.7183 54.9316 19.8898 55.0261 19.9622 55.12C20.0861 55.2801 20.2019 55.3659 20.3994 55.2858C20.5586 55.2213 20.6682 55.2445 20.7827 55.404C20.9307 55.6105 21.1611 55.5949 21.397 55.548C21.5314 55.5217 21.7005 55.5292 21.8181 55.5911C22.1117 55.7463 22.3823 55.9447 22.6671 56.118C22.7154 56.1474 22.8077 56.1649 22.8449 56.1386C23.1452 55.9259 23.4115 56.0435 23.7 56.1781C23.8264 56.2369 24.0016 56.1881 24.1533 56.1881V56.1868ZM15.446 6.11779L15.3482 5.99577C15.0466 6.07837 14.7463 6.1666 14.4428 6.24231C13.8354 6.39311 13.3969 6.82424 12.9083 7.17277C12.7758 7.26725 12.6328 7.34797 12.4959 7.43683C12.3925 7.50378 12.2042 7.57261 12.2036 7.64269C12.2005 7.87859 12.0482 7.90049 11.8934 7.93741C11.5844 8.01062 11.3243 8.13765 11.2809 8.51433H10.8208C10.8567 8.77652 10.7831 8.96048 10.5453 9.05622C10.3527 9.13381 10.1588 9.20952 9.97493 9.30526C9.73156 9.43228 9.57304 9.83963 9.70989 10.038C9.85975 10.2551 10.0722 10.3002 10.3093 10.135C10.3799 10.0862 10.4809 10.0668 10.5694 10.0611C11.632 9.99606 12.343 9.29086 13.0966 8.65825C13.3629 8.43424 13.7418 8.33913 13.8713 7.95806C13.8768 7.94117 13.9301 7.94492 13.9549 7.92928C14.0744 7.85482 14.2143 7.79725 14.3066 7.69651C14.6243 7.3486 14.9376 6.99506 15.2268 6.62338C15.3358 6.48321 15.3754 6.28799 15.4466 6.11779H15.446ZM40.3536 55.384C40.1183 55.3584 39.9331 55.2764 39.831 55.3377C39.4644 55.5567 38.9733 55.4716 38.6742 55.8327C38.616 55.9027 38.5454 55.9866 38.5373 56.0704C38.5058 56.3908 38.603 56.4809 38.9392 56.5059C39.216 56.5266 39.5306 56.3996 39.7387 56.7225C39.761 56.7575 39.9313 56.7056 40.0279 56.6774C40.0935 56.6586 40.1474 56.6011 40.2124 56.5773C40.6886 56.4071 41.2565 56.5504 41.6639 56.1424C41.6701 56.1361 41.6831 56.1361 41.693 56.133C41.9804 56.0379 42.2708 55.9509 42.5526 55.842C42.6424 55.8076 42.7068 55.71 42.7873 55.6462C42.9074 55.5511 43.0182 55.4197 43.1557 55.3759C43.4777 55.2733 43.814 55.2163 44.1434 55.1356C44.2202 55.1168 44.2995 55.0874 44.3651 55.0442C44.7391 54.8002 45.1256 54.5712 45.4761 54.2959C45.7002 54.1194 45.9467 53.9267 45.9999 53.5081C45.5498 53.7965 45.12 54.0062 44.7744 54.3128C44.4537 54.5975 44.0722 54.4523 43.7954 54.6325C43.7421 54.4417 43.7353 54.2058 43.6548 54.177C43.5044 54.1219 43.305 54.1638 43.1378 54.2095C42.9904 54.2496 42.8671 54.3803 42.7198 54.4179C42.5154 54.4698 42.29 54.4467 42.1922 54.7032C42.1792 54.737 42.0863 54.7483 42.0287 54.7552C41.3921 54.834 40.7803 54.9773 40.3517 55.384H40.3536ZM53.4496 42.9539C53.3802 43.1366 53.3641 43.3356 53.2576 43.4313C52.9622 43.696 52.7764 44.0445 52.5535 44.3549C52.3739 44.6046 52.3522 44.9706 52.2575 45.2847C52.2463 45.3223 52.2172 45.3567 52.19 45.3867C51.9894 45.6089 52.0643 45.8398 52.1857 46.0569C52.2129 46.1063 52.3733 46.1464 52.4005 46.1188C52.6346 45.8798 52.8526 45.6245 53.0737 45.3723C53.1814 45.2497 53.2824 45.1202 53.3926 44.9994C53.4545 44.9312 53.5765 44.8849 53.5907 44.8123C53.6762 44.3837 54.1252 44.3005 54.3345 43.9795C54.6026 43.5677 54.9952 43.238 55.2584 42.8237C55.6337 42.2324 55.9346 41.5936 56.2758 40.9797C56.5019 40.5736 56.4703 40.4059 56.1111 40.2451C55.7718 40.0931 55.6138 40.1644 55.4962 40.5117C55.4528 40.6393 55.4182 40.8383 55.3321 40.869C55.0522 40.9684 54.9971 41.1893 54.9302 41.4265C54.9122 41.4903 54.8447 41.5404 54.7989 41.5961C54.6583 41.7688 54.514 41.939 54.3772 42.1154C54.3116 42.2005 54.267 42.3031 54.2001 42.387C54.0874 42.5284 53.9642 42.661 53.8453 42.7981C53.8645 42.8187 53.8837 42.84 53.9035 42.8607C53.7456 42.8938 53.587 42.9264 53.4496 42.9551V42.9539ZM55.4324 17.4523C55.3308 17.1826 55.2479 16.8716 55.0999 16.5969C54.9698 16.356 54.7915 16.1288 54.5908 15.943C54.2341 15.612 54.2546 15.0157 53.7691 14.7816C53.7431 14.7691 53.7666 14.674 53.74 14.6359C53.6099 14.4513 53.4688 14.2742 53.3362 14.0915C53.2539 13.9782 53.1405 13.8693 53.109 13.7417C53.0247 13.3988 52.8675 13.1153 52.5968 12.8901C52.512 12.8194 52.46 12.7105 52.3832 12.6285C52.1584 12.3895 51.9324 12.1505 51.6983 11.9208C51.5484 11.7738 51.3274 11.7337 51.2116 11.8939C51.0976 12.0516 51.1366 12.2706 51.3069 12.437C51.6054 12.728 51.8556 13.0471 51.8711 13.4995C51.8742 13.5884 51.9435 13.7329 52.011 13.7523C52.3943 13.8643 52.3869 14.1641 52.3962 14.4719C52.4012 14.6415 52.4408 14.7898 52.6625 14.8198C52.7269 14.8286 52.795 14.965 52.8241 15.0557C52.9028 15.3004 52.878 15.6208 53.2217 15.6696C53.4205 15.6977 53.4396 15.7997 53.452 15.963C53.4595 16.0588 53.5164 16.2133 53.5802 16.2302C53.8465 16.2997 53.9388 16.4624 53.9511 16.722C53.9555 16.814 54.0131 16.9348 54.0855 16.9855C54.3134 17.145 54.3927 17.3715 54.4404 17.6275C54.4664 17.767 54.5017 17.9097 54.563 18.0354C54.5946 18.1005 54.693 18.1712 54.7624 18.1719C55.0423 18.175 55.4231 17.7676 55.4318 17.4516L55.4324 17.4523ZM48.7655 50.3738C48.9333 50.6191 49.0733 50.4526 49.178 50.3519C49.3012 50.2324 49.3984 50.1473 49.5693 50.2574C49.6089 50.2831 49.6901 50.2831 49.7322 50.2593C49.9372 50.1429 50.1508 50.0334 50.3304 49.8832C50.4462 49.7869 50.5013 49.7112 50.6567 49.8294C50.8468 49.9733 50.9855 49.8 51.0171 49.653C51.1125 49.2081 51.3565 48.8583 51.6283 48.5154C51.7231 48.3959 51.7881 48.2513 51.8822 48.0918C51.4481 47.9991 51.1961 48.2582 50.9069 48.4078C50.8029 48.4616 50.6988 48.5154 50.5917 48.5623C50.4326 48.633 50.2443 48.6662 50.1161 48.7732C49.9241 48.934 49.7984 49.2237 49.4901 48.9571C49.4777 48.9465 49.4312 48.9672 49.4058 48.9822C49.0851 49.173 48.7476 49.3426 48.4516 49.5672C48.3122 49.673 48.2466 49.8632 48.0181 49.7662C47.9785 49.7493 47.867 49.7937 47.8614 49.8238C47.7976 50.1648 47.5338 50.1366 47.2985 50.1366C47.1703 50.4702 46.5604 50.7799 46.1535 50.7223C46.1207 51.0083 46.0786 51.2761 45.7467 51.4031C45.6414 51.4432 45.5937 51.6534 45.5386 51.7936C45.5324 51.8086 45.6457 51.8987 45.7101 51.9093C45.7956 51.9237 45.9151 51.8518 45.9733 51.8899C46.169 52.0176 46.273 51.8806 46.3975 51.7811C46.4687 51.7241 46.5362 51.6559 46.6167 51.6184C46.9412 51.4657 47.2818 51.3424 47.5945 51.1691C47.8472 51.0289 48.015 50.7236 48.3754 50.8068C48.4169 50.8162 48.4881 50.728 48.5345 50.6748C48.607 50.5909 48.6702 50.4989 48.7643 50.3744L48.7655 50.3738ZM14.0961 53.6019C14.1196 53.5819 14.1431 53.5619 14.166 53.5419C14.1468 53.4374 14.158 53.3128 14.1041 53.2328C13.8124 52.7972 13.8143 52.1815 13.2966 51.8831C13.2576 51.8605 13.2613 51.7729 13.2316 51.7241C13.0309 51.3937 12.8334 51.0615 12.621 50.7392C12.5077 50.5671 12.3752 50.4051 12.2364 50.253C12.042 50.0403 11.8488 49.8225 11.6265 49.6417C11.3862 49.4465 11.1181 49.285 10.8543 49.1217C10.7639 49.0654 10.6499 49.0479 10.5465 49.0122C10.5242 49.1148 10.479 49.2181 10.4833 49.3188C10.5032 49.7568 11.0995 49.937 10.9831 50.4414C11.3057 50.452 11.2908 50.8106 11.4803 50.9388C11.8172 51.1672 11.8042 51.701 12.2581 51.8111C12.2724 51.8149 12.281 51.8436 12.2922 51.8605C12.3993 52.0207 12.4953 52.1915 12.6191 52.3373C12.6941 52.4256 12.8898 52.4669 12.8978 52.5432C12.9226 52.7885 13.1102 52.8417 13.2588 52.9562C13.4452 53.0995 13.6124 53.2684 13.7957 53.4161C13.8867 53.4899 13.9957 53.5412 14.0967 53.6026L14.0961 53.6019ZM2.1965 33.1625C2.08318 33.3051 1.92589 33.4134 1.92465 33.5223C1.92093 33.8889 1.97295 34.2562 2.00391 34.6235C2.01258 34.7249 2.04478 34.8307 2.02806 34.9277C1.94384 35.422 2.13024 35.8268 2.56991 36.0602C2.68137 35.7974 2.86777 35.5396 2.88573 35.2699C2.91174 34.8795 2.86282 34.4684 2.76064 34.0892C2.64174 33.648 2.69871 33.1381 2.33521 32.7814C2.24914 32.6976 2.12157 32.6562 2.0132 32.5956C1.98657 32.6262 1.95933 32.6569 1.9327 32.6875C2.02992 32.8627 2.12714 33.0379 2.1965 33.1625ZM2.85972 30.7834C3.09132 30.5644 3.28205 30.3886 3.46659 30.2065C3.49879 30.1746 3.5186 30.1183 3.52418 30.0707C3.58734 29.5044 3.65236 28.9382 3.7019 28.37C3.70995 28.2799 3.66599 28.1554 3.60158 28.0984C3.55204 28.0546 3.4028 28.0559 3.34955 28.1003C3.17182 28.2486 3.00834 28.4169 2.8591 28.5953C2.81389 28.6497 2.82628 28.7586 2.82442 28.8431C2.82256 28.9463 2.84548 29.0508 2.83681 29.1528C2.80213 29.5626 2.74578 29.9706 2.72658 30.3811C2.72039 30.505 2.80708 30.6339 2.85972 30.7834ZM9.92044 49.0616C10.0412 49.0429 10.1558 49.0429 10.2542 49.0034C10.3471 48.9665 10.4227 48.8871 10.5062 48.8264C10.3892 48.7619 10.2592 48.6286 10.157 48.648C9.97927 48.6812 9.83126 48.8151 9.92044 49.0623V49.0616Z" fill="#F70085"/>
</g>
<defs>
<clipPath id="clip0_72_128">
<rect width="60" height="60" fill="white"/>
</clipPath>
</defs>
</svg>
